<?xml version="1.0" standalone="no"?>
<!DOCTYPE svg PUBLIC "-//W3C//DTD SVG 20010904//EN"
 "http://www.w3.org/TR/2001/REC-SVG-20010904/DTD/svg10.dtd">
<svg version="1.0" xmlns="http://www.w3.org/2000/svg"
 width="250.000000pt" height="250.000000pt" viewBox="0 0 250.000000 250.000000"
 preserveAspectRatio="xMidYMid meet">
<metadata>
Created by potrace 1.11, written by Peter Selinger 2001-2013
</metadata>
<g transform="translate(0.000000,250.000000) scale(0.100000,-0.100000)"
fill="#000000" stroke="none">
<path d="M110 1255 l0 -1135 1140 0 1140 0 0 1135 0 1135 -1140 0 -1140 0 0
-1135z m2180 0 l0 -1035 -1040 0 -1040 0 0 1035 0 1035 1040 0 1040 0 0 -1035z"/>
<path d="M603 2170 c-17 -5 -18 -46 -18 -915 l0 -910 698 -3 697 -2 0 155 0
155 -510 0 c-280 0 -510 3 -511 8 -1 10 -1 464 0 478 1 8 125 11 439 12 240 0
447 1 458 1 21 1 22 4 21 155 l-2 154 -453 -1 c-249 0 -455 3 -459 6 -9 9 -10
388 -1 393 4 3 227 5 495 5 l489 0 0 154 0 155 -25 1 c-136 3 -1304 3 -1318
-1z"/>
</g>
</svg>
